<svg width="131" height="58" viewBox="0 0 131 58" xmlns="http://www.w3.org/2000/svg"><title>handcrafted.software</title><g fill="#4A4A4A" fill-rule="evenodd"><path d="M.164 30.045S1.864 9.52 20.91 5C39.954.477 56.974 15.604 56.974 15.604S43.534-4.36 20.384 1.095C-2.853 6.57.164 30.045.164 30.045z"/><path d="M4.393 46.127S.765 18.727 22.736 14.04C40.76 9.836 59.95 22.26 59.95 22.26S46.564 5.435 22.21 10.135C-5.823 17.145 4.394 46.127 4.394 46.127z"/><path d="M11.258 52.704S1.868 26.67 25.075 22.306c19.84-3.73 35.668 5.87 35.668 5.87s-14.2-13.936-35.174-9.59c-28.95 5.998-14.312 34.118-14.312 34.118z"/><path d="M23.542 57.907s-15.725-16.684 2.473-27.03C30.252 28.47 38.9 28.6 44.41 29.483c9.163 1.467 15.63 4.907 15.63 4.907s-13.968-14.793-35.513-7.013c-9.696 3.5-13.796 15.734-9.29 22.735 4.504 7 8.305 7.795 8.305 7.795z"/><path d="M59.812 40.59s-15-8.143-26.607-6.652c-7.666.986-11.748 5.628-11.938 11.607-.183 5.766 3.98 11.298 12.72 11.727 13.012.64 35.504-4.455 33.89-31.3C66.816 8.398 49.04 4.706 49.04 4.706s6.347 2.785 10.772 10.062c4.425 7.276 4.166 7.893 4.166 15.053 0 8.987-4.07 15.778-10.11 19.694-6.724 4.358-12.845 5.635-21.314 4.242-5.844-.96-8.598-5.095-7.725-8.852 1.04-4.48 3.22-7.127 10.613-8.03 9.893-1.205 24.37 3.717 24.37 3.717z"/><path d="M28.565 47.07s6.06 1.037 9.677 1.132c3.617.094 15.756-.465 15.756-.465s-9.92 3.918-16.454 3.746c-6.183-.162-8.98-4.412-8.98-4.412zM57.04 5.458s14.42 6.84 14.42 22.434c0 19.213-12.547 23.618-12.547 23.618s16.837-.69 16.192-24.1C74.548 7.222 57.04 5.457 57.04 5.457z"/><path d="M65.31 5.926s12.895 5.635 12.895 21.227c0 19.213-10.155 23.797-10.155 23.797s14.445-.87 13.8-24.28C81.292 6.484 65.31 5.926 65.31 5.926zM80.622 45.965s14.036 9.564 31.045 4.218c17.01-5.345 18.89-20.733 18.89-20.733s1.986 20.313-18.28 25.298c-20.032 4.928-31.655-8.783-31.655-8.783z"/><path d="M82.975 40.536s19.476 8.78 32.926-1.634c13.452-10.416 10.615-26.306 10.615-26.306s9.212 20.733-10.614 31.176c-18.048 9.508-32.925-3.236-32.925-3.236z"/><path d="M84.928 34.897s16.976 3.798 28.602-4.245c11.626-8.042 5.554-26.308 5.554-26.308s13.516 20.947-5.012 30.553c-18.057 9.362-29.144 0-29.144 0z"/><path d="M85.775 27.303s16.036 4.89 24.48-5.324c8.443-10.215-1.757-21.557-1.757-21.557s15.258 10.087 5.63 23.267c-10.682 14.62-28.353 3.613-28.353 3.613z"/><path d="M77.003 7.287S83.717 1.5 91.928.367c8.21-1.136 17.26 1.3 17.96 9.133.988 11.068-5.663 12.005-12.607 13.04-6.944 1.033-13.782-3.695-13.782-3.695s9.196 2.448 15.848.5c6.652-1.948 7.083-5.093 6.714-8.926-.355-3.68-3.365-7.088-10.58-7.088-10.49 0-18.477 3.955-18.477 3.955z"/><path d="M80.852 11.36s4.854-4.504 13.323-3.992c7.817.473 10.188 3.99 10.188 3.99s-6.837-1.397-10.188-1.397c-3.35 0-13.323 1.4-13.323 1.4z"/></g></svg>
